inDegrees=no
num_controls=7
num_derivatives=13
num_iterations=111
num_multipliers=7
num_parameters=0
num_slacks=7
num_states=26
objective=3.931451
objective_accelerations=0.504151
objective_balance=0.056778
objective_effort=0.452599
objective_height=2.878609
objective_ligament=0.039315
solver_duration=1183.749082
status=Solve_Succeeded
success=true
DataType=double
version=3
OpenSimVersion=4.4-2022-07-23-0e9fedc
endheader
time	/jointset/ground_pelvis/pelvis_tilt/value	/jointset/ground_pelvis/pelvis_tx/value	/jointset/ground_pelvis/pelvis_ty/value	/jointset/hip_l/hip_flexion_l/value	/jointset/hip_l/hip_adduction_l/value	/jointset/hip_l/hip_rotation_l/value	/jointset/back/lumbar_extension/value	/jointset/patellofemoral_l/patellar_flexion_l/value	/jointset/knee_l/knee_flexion_l/value	/jointset/knee_l/knee_adduction_l/value	/jointset/knee_l/knee_rotation_l/value	/jointset/ankle_l/ankle_angle_l/value	/jointset/subtalar_l/subtalar_angle_l/value	/jointset/ground_pelvis/pelvis_tilt/speed	/jointset/ground_pelvis/pelvis_tx/speed	/jointset/ground_pelvis/pelvis_ty/speed	/jointset/hip_l/hip_flexion_l/speed	/jointset/hip_l/hip_adduction_l/speed	/jointset/hip_l/hip_rotation_l/speed	/jointset/back/lumbar_extension/speed	/jointset/patellofemoral_l/patellar_flexion_l/speed	/jointset/knee_l/knee_flexion_l/speed	/jointset/knee_l/knee_adduction_l/speed	/jointset/knee_l/knee_rotation_l/speed	/jointset/ankle_l/ankle_angle_l/speed	/jointset/subtalar_l/subtalar_angle_l/speed	/forceset/tau_hip_flexion_l	/forceset/tau_hip_adduction_l	/forceset/tau_hip_rotation_l	/forceset/tau_knee_flexion_l	/forceset/tau_ankle_angle_l	/forceset/tau_subtalar_angle_l	/forceset/tau_lumbar_extension	lambda_cid13_p0	lambda_cid13_p1	lambda_cid13_p2	lambda_cid13_p3	lambda_cid13_p4	lambda_cid13_p5	lambda_cid14_p0	/jointset/ground_pelvis/pelvis_tilt/accel	/jointset/ground_pelvis/pelvis_tx/accel	/jointset/ground_pelvis/pelvis_ty/accel	/jointset/hip_l/hip_flexion_l/accel	/jointset/hip_l/hip_adduction_l/accel	/jointset/hip_l/hip_rotation_l/accel	/jointset/back/lumbar_extension/accel	/jointset/patellofemoral_l/patellar_flexion_l/accel	/jointset/knee_l/knee_flexion_l/accel	/jointset/knee_l/knee_adduction_l/accel	/jointset/knee_l/knee_rotation_l/accel	/jointset/ankle_l/ankle_angle_l/accel	/jointset/subtalar_l/subtalar_angle_l/accel	gamma_cid13_p0	gamma_cid13_p1	gamma_cid13_p2	gamma_cid13_p3	gamma_cid13_p4	gamma_cid13_p5	gamma_cid14_p0
0.5	-0.3750771409878322	-0.04671793272806483	0.7230448923295447	1.344761523358542	-0.30273563327434	0.05712514088621565	-0.3397533434509861	0.973977183631449	0.9739771836315748	-0.1699970760651367	0.1744293942005915	0.1940038350225948	-0.01234082307100001	-0.4978805574270711	-0.1664143891055164	-0.6794408389092714	2.564777607333944	0.07594752805433044	0.8977368664309829	-0.6032318063133191	2.504183217959889	2.504183217959899	-0.02983580460872536	-0.0002070472501305884	0.5925059756838165	0.1859679574971031	-0.2141730512511801	0.01048594470179372	-0.02526987733729185	-0.2745950943734322	0.1094938277987944	0.03496385854136403	0.2057568199944846	-2.71773002104454	-16.74675483964252	4.595136255530637	-5.952419131728366	-603.5167100596109	-57.46454141568512	-10.80144266234294	0.8207711248991469	0.7893186697577272	-0.5033356130031982	-1.781504028556882	0.9687443639834226	-0.4773349973808574	1.95615962847058	-1.821498062627259	-1.82149806262722	0.03013995502209611	0.0127609189531504	-0.9852014791531066	1.090433758874534	-4.90232405241208e-07	-3.042862783115312e-07	3.354195778157407e-06	4.222216170811359e-07	-6.103229364113775e-07	4.366182893181123e-07	-5.284731271988358e-07
0.51	-0.3800138532887475	-0.04834250036349032	0.7162268644621187	1.370316269308927	-0.3019292990589371	0.06608008163338029	-0.3456877689621908	0.9989240666063931	0.9989240666064247	-0.1702975209203917	0.1744277329712065	0.1998780688797156	-0.01042843402528161	-0.4893979887156207	-0.1584939335222964	-0.6840104913898798	2.545844744515054	0.08527947962083608	0.8931479317638714	-0.5836012099641114	2.484860936559065	2.484860936559102	-0.03021278109251112	-0.0001265978096399543	0.5822323904049649	0.1964764555202967	-0.2213879719662409	0.01022273400293891	-0.02495150710387024	-0.2782618303963504	0.1080670198089855	0.03467113018280679	0.2117124573047294	-3.514342673419352	-16.32173010837266	4.346430024716845	-5.573400369314798	-609.5562177969531	-57.29219000662022	-9.243622477922598	0.8715524217210483	0.7942723929949684	-0.410761543643294	-1.998253051946016	0.9089935432511462	-0.4656000491272144	1.974322532658166	-2.037357058613724	-2.037357058609707	-0.0655660514958437	0.004806573895534415	-1.064664491655491	1.025706668171578	-4.85720453845366e-07	-4.082462330070431e-07	3.344298634680638e-06	4.226976412457102e-07	-6.237503039672788e-07	4.849995277752534e-07	-5.382997732419682e-07
0.52	-0.384863829367059	-0.04988769076500538	0.7093677437742758	1.395671871502443	-0.3010309307298172	0.07498594756432779	-0.3514243259310016	1.023667773991366	1.023667773991308	-0.1706005254607654	0.1744267001596903	0.205646321396167	-0.008412030230505319	-0.4805333129060488	-0.1505389423234283	-0.6876594029926296	2.524948855960528	0.09435435079802211	0.8879219031867231	-0.563658097834413	2.463548099966088	2.463548099966152	-0.03034774163297382	-8.136367720961408e-05	0.5713097075499406	0.2067709073086837	-0.228602892681309	0.009959523304090801	-0.02463313687042192	-0.2819285664192698	0.1066402118191799	0.03437840182425826	0.2176680946149646	-4.314393463408377	-15.89591872996377	4.097390259992188	-5.220269042952094	-615.6689785000362	-57.20747231987012	-7.719215932715323	0.8971925445234109	0.7962257928873463	-0.3191874374314819	-2.174109175684075	0.9173282861194995	-0.6047537793881645	2.018662784568742	-2.219609101058021	-2.219609101058055	0.07854314368669273	0.005717857341094618	-1.115020994387663	1.04762451191322	-5.282509091681545e-07	-6.991420860378681e-07	3.509819395485507e-06	4.410604720155059e-07	-6.923845641541291e-07	4.850869693199984e-07	-5.935508684333003e-07
0.53	-0.3896233937297005	-0.05135326828412706	0.7024767938018394	1.420808832341969	-0.3000435575596429	0.08383633201382477	-0.3569601435957068	1.048188370940758	1.048188370940583	-0.1709043445941777	0.1744266136046242	0.2113019839141609	-0.006294404421976754	-0.471325780507304	-0.1425803006274805	-0.6903739286214557	2.502136549406728	0.1030745529246085	0.8820540852397721	-0.5434753094097725	2.440256607929063	2.440256607929089	-0.03037225418818226	6.261290308413298e-05	0.5597264899971738	0.2167101019281466	-0.2355668956004883	0.009606391802290995	-0.02425286133730368	-0.2858091497126236	0.1052850440484341	0.03383884249449543	0.2233668202123808	-5.101062382221536	-15.35576374931455	3.819280605648133	-4.776271532915568	-621.7340762461674	-56.9644134837468	-6.32547427865304	0.9405614465615704	0.7952126300867619	-0.2242313816067336	-2.380863344966913	0.8420416834046885	-0.5934664413457731	2.022605725918515	-2.430997038123075	-2.430997038128628	-0.03649486802167215	0.01777213798454528	-1.194401738435551	0.9601564845284928	-5.30171791189607e-07	-7.885498273375218e-07	3.558482023217164e-06	4.476414897860554e-07	-7.096735678664981e-07	5.486428892364221e-07	-6.115959872917868e-07
0.54	-0.3942892771965542	-0.05273935353186154	0.695563369321915	1.445708455726008	-0.2989704472667096	0.09262490415606324	-0.3622932296052646	1.072466637413157	1.072466637412874	-0.1712071181356965	0.1744277737312898	0.2168389283360848	-0.004078768757740454	-0.4617971337480999	-0.134640488045991	-0.6921543044902176	2.477481364863365	0.11150177535025	0.875559441732935	-0.523111766804861	2.415082004568103	2.415082004568093	-0.03013862325926993	0.0001679726678191494	0.5475660883358323	0.2263728784502377	-0.2425308985196609	0.009253260300514857	-0.02387258580431416	-0.2896897330059618	0.1039298762776967	0.03329928316476353	0.2290655458097986	-5.88420725687801	-14.82662761705691	3.554811904642396	-4.404944795155554	-627.7593254450422	-56.82739213006612	-5.081891281022281	0.9614154166152349	0.7924599699956788	-0.1323574854186801	-2.542684773596906	0.8587323459305091	-0.7301188913653818	2.054813620622905	-2.596231365845025	-2.596231365845089	0.1301718405108328	-0.002005505770652696	-1.230457816102585	0.9923408924388494	-4.871629325372409e-07	-6.550345514026858e-07	3.47785480159122e-06	4.411873101957367e-07	-6.701550537773125e-07	6.824192533087464e-07	-5.884770472288268e-07
0.55	-0.3988583714864768	-0.05404621187124465	0.6886368176886941	1.47035256264396	-0.2978145267916481	0.1013455334795297	-0.3674218644030884	1.096484005249137	1.09648400524895	-0.1715062594890265	0.1744298242393375	0.2222515704189746	-0.001767931645290124	-0.4519732541576797	-0.1267422433613137	-0.6929970075763234	2.451040925923639	0.1196212569633211	0.8684654632187229	-0.5026004166689936	2.388088055858312	2.388088055858305	-0.029661835393655	0.0002527402705479108	0.5348755809536571	0.2357271787534463	-0.2493514044837223	0.008666436148651136	-0.02341840907433391	-0.2937046170527016	0.1024427575435267	0.03267470227862197	0.2345926097272809	-6.719260561872991	-14.25170902378256	3.283305471480323	-3.888510165941834	-633.7901145438	-56.66873612529432	-3.984761781223594	1.000115770640428	0.7869347214834393	-0.03650425346133452	-2.739633158357797	0.778933726670631	-0.7146641470161734	2.051512123684906	-2.796387465621443	-2.796387465620727	0.01049939834719486	0.01458749252403245	-1.301329994365004	0.896557358223977	-4.453458786300664e-07	-4.628344080298396e-07	3.44870497544941e-06	4.549157474585155e-07	-6.404346991309728e-07	8.43773375723869e-07	-5.646468711428338e-07
0.5600000000000001	-0.4033277786724204	-0.055274402163025	0.6817065835179612	1.494723283231673	-0.2965793359689235	0.1099920976547524	-0.3723449424168308	1.120222351429602	1.12022235142952	-0.1717998195359206	0.1744328963432671	0.2275347108690252	0.0006343650219846706	-0.4418597129518612	-0.1189068785254372	-0.692890811992615	2.422804098816022	0.1273558448833974	0.8607464120818302	-0.4820004099884781	2.359277673465511	2.359277673465509	-0.02902236197762227	0.0003722918424519796	0.5216657617678813	0.2446647894151411	-0.2561719104477789	0.00807961199681102	-0.02296423234446991	-0.2977195010994285	0.100955638809365	0.03205012139251183	0.2401196736447632	-7.553967908387515	-13.68757415375464	3.025769461520008	-3.430043821773676	-639.8164824644215	-56.61603375353893	-3.024506669620576	1.019347739694888	0.7798840002355464	0.05742224854413903	-2.901962407174799	0.7817536073315428	-0.8551334159014706	2.072544929552484	-2.959518102446914	-2.959518102446856	0.1627089505943832	0.00495128806440674	-1.334320176822704	0.9090029641360814	-4.049589904171217e-07	-2.002124237313836e-07	3.481328023888558e-06	4.928633249450105e-07	-6.224721358160481e-07	1.038220808150349e-06	-5.399632118292014e-07
0.5700000000000001	-0.4076948451951312	-0.05642463453204508	0.6747821461261834	1.518803026489037	-0.2952685091062891	0.1185588654442102	-0.3770616171669404	1.143663707291052	1.143663707291283	-0.1720861780136864	0.174436858990256	0.232683380668544	0.00312416931013028	-0.4315151716995369	-0.1111566673246211	-0.6918384202544712	2.392861748292877	0.1347458777465569	0.8525036451837051	-0.4613355696651791	2.32870969614159	2.328709696141595	-0.0282158920763962	0.0004303477563792775	0.5079996008955048	0.2532220762282715	-0.2626717480858254	0.007299176573976879	-0.02243299468371942	-0.3019387809451066	0.09958296929067431	0.03127916788457852	0.245341185245749	-8.355213531907111	-13.06460695958375	2.757569967400068	-2.908110507092372	-645.7220133787548	-56.51753719613515	-2.204754655335728	1.047757572159593	0.7701317388432348	0.152762090428102	-3.082821443597155	0.7075718509107882	-0.8247916686361838	2.063299138934449	-3.147902749648057	-3.147902749647119	0.04458846415160153	0.007007166554268726	-1.392997330529233	0.8175868215709164	-3.597682972381308e-07	1.804687890902674e-09	3.434081624943073e-06	5.064316260454115e-07	-5.917485797467257e-07	1.186121288273055e-06	-5.11179681935575e-07
